{"title":"Bergman - Aus dem Leben der Marionetten [1980]","uid":5304428,"size":1327734524,"categoryP":"video","categoryS":"movies","magnet":"?xt=urn:btih:c77614a9eb8c2dfa59c9da9efcd39a131aee0e9f&amp;dn=Bergman+-+Aus+dem+Leben+der+Marionetten+%5B1980%5D&amp;tr=udp%3A%2F%2Ftracker.openbittorrent.com%3A80&amp;tr=udp%3A%2F%2Fopen.demonii.com%3A1337&amp;tr=udp%3A%2F%2Ftracker.coppersurfer.tk%3A6969&amp;tr=udp%3A%2F%2Fexodus.desync.com%3A6969","seeders":2,"leechers":0,"uploader":"mfccorrea","files":6,"time":1264342336,"description":"Produced and directed for German television, Ingmar Bergman's From the Life of the Marionettes starts out in color and switches almost immediately to black-and-white. This cinematic self-indulgence is ideally suited to the subject matter: the horrible consequences of a rapidly disintegrating marriage. The husband, Peter Egerman (Robert Atzorn) is unable to articulate his frustration through normal channels. Warped by his repression, Egerman ends up raping and murdering a prostitute. This outrage occurs at the very beginning of the film; the rest of the footage is devoted to a semi-documentary study of the failed marriage, the police investigation, and the husband's twisted psyche. Once again, Bergman's vision is superbly realized by the camerawork of Sven Nykvist. \n\n   General\n      Complete name : Aus dem Leben der Marionetten.avi\n      Format : AVI\n      Format/Info : Audio Video Interleave\n      File size : 1.24 GiB\n      Duration : 1h 39mn\n      Overall bit rate : 1 780 Kbps\n      Writing application : VirtualDubMod 1.5.10.2 (build 2540/release)\n      Writing library : VirtualDubMod build 2540/release\n   Video #0\n      ID : 0\n      Format : MPEG-4 Visual\n      Format settings, BVOP : Yes\n      Format settings, QPel : No\n      Format settings, GMC : No warppoints\n      Format settings, Matrix : Default (H.263)\n      Muxing mode : Packed bitstream\n      Codec ID : DX50\n      Codec ID/Hint : DivX 5\n      Duration : 1h 39mn\n      Bit rate : 1 578 Kbps\n      Width : 640 pixels\n      Height : 464 pixels\n      Display aspect ratio : 1.379\n      Frame rate : 25.000 fps\n      Resolution : 24 bits\n      Colorimetry : 4:2:0\n      Scan type : Progressive\n      Bits/(Pixel*Frame) : 0.213\n      Stream size : 1.10 GiB (89%)\n      Writing library : DivX 5.1.1 (Maupiti) (UTC 2003-11-19)\n   Audio #1\n      ID : 1\n      Format : AC-3\n      Format/Info : Audio Coding 3\n      Codec ID : 2000\n      Duration : 1h 39mn\n      Bit rate mode : Constant\n      Bit rate : 192 Kbps\n      Channel(s) : 3 channels\n      Channel positions : L R, LFE\n      Sampling rate : 48.0 KHz\n      Stream size : 137 MiB (11%)\n      Alignment : Split accross interleaves\n      Interleave, duration : 40 ms (1.00 video frame)\n      Interleave, preload duration : 500 ms\n\nIMDB: tt0080397\n\nGerman audio; English, French, Italian, Spanish and Portuguese subtitles\n\nBergman - Aus dem Leben der Marionetten [1980]","torrent":{"xt":"urn:btih:c77614a9eb8c2dfa59c9da9efcd39a131aee0e9f","amp;dn":"Bergman+-+Aus+dem+Leben+der+Marionetten+%5B1980%5D","amp;tr":["udp%3A%2F%2Ftracker.openbittorrent.com%3A80","udp%3A%2F%2Fopen.demonii.com%3A1337","udp%3A%2F%2Ftracker.coppersurfer.tk%3A6969","udp%3A%2F%2Fexodus.desync.com%3A6969"],"infoHash":"c77614a9eb8c2dfa59c9da9efcd39a131aee0e9f","infoHashBuffer":{"type":"Buffer","data":[199,118,20,169,235,140,45,250,89,201,218,158,252,211,154,19,26,238,14,159]},"announce":[],"urlList":[]}}